<?xml version="1.0" standalone="no"?>
<!DOCTYPE svg PUBLIC "-//W3C//DTD SVG 20010904//EN"
 "http://www.w3.org/TR/2001/REC-SVG-20010904/DTD/svg10.dtd">
<svg version="1.0" xmlns="http://www.w3.org/2000/svg"
 width="500.000000pt" height="500.000000pt" viewBox="0 0 500.000000 500.000000"
 preserveAspectRatio="xMidYMid meet">
<metadata>
Created by potrace 1.16, written by Peter Selinger 2001-2019
</metadata>
<g transform="translate(0.000000,500.000000) scale(0.100000,-0.100000)"
fill="#000000" stroke="none">
<path d="M35 2802 c-4 -4 263 -266 276 -270 5 -2 9 -8 9 -13 0 -6 -71 -80
-157 -164 l-158 -154 72 -1 c47 0 75 4 80 13 4 6 59 61 120 121 l112 109 126
-121 125 -122 72 0 73 1 -159 155 c-88 85 -156 157 -152 162 3 4 68 69 144
144 l137 138 -65 0 -65 0 -107 -105 c-59 -58 -113 -105 -119 -105 -6 0 -58 46
-115 103 l-106 102 -70 5 c-38 3 -71 3 -73 2z"/>
<path d="M2168 2793 c-8 -10 -80 -126 -158 -258 -79 -132 -156 -262 -171 -288
l-29 -48 62 3 61 3 132 222 c72 122 133 224 136 227 5 5 129 -196 129 -208 0
-3 -40 -6 -88 -6 l-88 0 -22 -39 c-12 -21 -22 -41 -22 -45 0 -3 62 -6 139 -6
l138 0 44 -72 44 -73 63 -3 c34 -2 62 -1 62 2 0 3 -81 139 -179 303 -164 273
-181 298 -208 301 -18 2 -35 -4 -45 -15z"/>
<path d="M1180 2500 l0 -300 255 0 255 0 0 50 0 50 -200 0 -200 0 0 250 0 250
-55 0 -55 0 0 -300z"/>
<path d="M2835 2784 c-48 -25 -74 -55 -86 -98 -24 -88 14 -170 96 -207 34 -16
67 -19 216 -19 163 0 178 -2 203 -21 47 -37 31 -106 -31 -130 -13 -5 -128 -9
-254 -9 l-229 0 0 -50 0 -50 253 0 c242 0 255 1 297 23 64 31 93 90 87 171 -6
62 -23 95 -71 130 -25 19 -45 21 -228 26 -195 5 -200 6 -219 29 -27 34 -24 75
7 100 25 20 39 21 255 21 l229 0 0 50 0 50 -247 0 c-205 0 -253 -3 -278 -16z"/>
<path d="M3560 2500 l0 -300 270 0 270 0 0 50 0 50 -215 0 -215 0 0 200 0 200
215 0 215 0 0 50 0 50 -270 0 -270 0 0 -300z"/>
<path d="M4280 2510 c0 -159 -1 -293 -2 -297 -2 -5 21 -9 50 -11 l52 -3 0 250
0 251 176 0 c233 0 264 -14 264 -120 0 -101 -34 -120 -219 -120 l-141 0 0 -45
0 -45 109 0 109 0 78 -85 77 -85 76 0 76 0 -90 90 c-49 49 -87 91 -84 93 2 2
19 14 37 26 51 36 76 93 76 178 -1 62 -5 79 -30 119 -19 31 -45 56 -73 71 -43
22 -52 23 -293 23 l-248 0 0 -290z"/>
<path d="M3744 2536 c-3 -8 -4 -27 -2 -43 l3 -28 168 -3 167 -2 0 45 0 45
-165 0 c-134 0 -167 -3 -171 -14z"/>
</g>
</svg>
