<?xml version="1.0" standalone="no"?>
<!DOCTYPE svg PUBLIC "-//W3C//DTD SVG 20010904//EN"
 "http://www.w3.org/TR/2001/REC-SVG-20010904/DTD/svg10.dtd">
<svg version="1.0" xmlns="http://www.w3.org/2000/svg"
 width="512.000000pt" height="512.000000pt" viewBox="0 0 512.000000 512.000000"
 preserveAspectRatio="xMidYMid meet">

<g transform="translate(0.000000,512.000000) scale(0.100000,-0.100000)"
fill="#000000" stroke="none">
<path d="M2094 5108 c-44 -21 -45 -33 -42 -446 l3 -392 -810 0 c-445 0 -838
-5 -873 -10 -180 -25 -329 -166 -362 -339 -14 -74 -14 -3498 0 -3572 32 -170
171 -308 341 -339 36 -7 810 -9 2234 -8 2103 3 2181 4 2215 22 98 52 150 144
150 265 0 62 2 69 24 79 40 18 96 73 119 116 l22 41 3 1585 c2 1193 0 1596 -9
1628 -16 59 -60 116 -114 147 l-45 27 0 98 0 98 43 26 c24 14 56 41 71 60 54
72 56 87 56 493 l0 375 -29 29 -29 29 -1474 -1 c-992 0 -1480 -4 -1494 -11z
m124 -1106 c3 -90 2 -92 -22 -101 -66 -26 -146 -136 -146 -202 l0 -27 -72 36
c-64 32 -83 37 -164 40 -70 3 -105 0 -145 -13 -181 -60 -299 -219 -299 -403 0
-174 90 -317 244 -388 122 -56 252 -53 370 7 33 16 60 29 62 29 2 0 4 -113 4
-251 0 -138 -3 -249 -8 -247 -4 2 -32 15 -62 31 -84 41 -155 53 -245 40 -143
-20 -267 -111 -329 -242 -29 -62 -31 -73 -31 -176 0 -103 2 -114 32 -177 44
-93 109 -160 200 -205 65 -32 86 -37 161 -41 71 -3 99 0 152 18 35 12 76 30
91 41 15 10 30 19 33 19 3 0 6 -115 6 -255 l0 -255 -52 29 c-130 72 -294 71
-420 -3 -50 -29 -126 -106 -155 -156 -72 -128 -72 -300 2 -426 86 -147 268
-233 435 -204 36 6 93 26 128 45 58 31 62 31 62 13 0 -70 75 -181 140 -208 29
-12 30 -14 30 -84 0 -39 3 -81 6 -93 l6 -23 -914 0 c-1041 0 -987 -4 -1069 79
-85 85 -79 -71 -79 1886 0 1880 -3 1785 54 1860 33 43 100 83 157 94 24 5 447
8 939 7 l895 -1 3 -93z m2562 13 l0 -85 -1195 0 -1195 0 0 85 0 85 1195 0
1195 0 0 -85z m125 -271 c35 -14 45 -58 45 -199 l0 -135 -497 0 -498 0 -50
-24 c-28 -12 -65 -40 -84 -61 -70 -80 -66 -30 -66 -850 l0 -740 23 -47 c29
-58 101 -124 151 -138 22 -6 229 -10 529 -10 l492 0 0 -84 0 -85 -497 -3
c-481 -3 -500 -4 -543 -24 -56 -26 -123 -98 -141 -150 -8 -23 -13 -86 -13
-155 -1 -131 9 -162 57 -179 19 -6 224 -10 584 -10 l554 0 -3 -145 c-3 -135
-5 -146 -26 -167 l-23 -23 -1315 0 -1316 0 -24 28 c-23 27 -24 35 -24 167 l0
139 498 3 c459 3 500 4 540 22 53 23 124 101 140 154 9 29 12 312 12 1113 l0
1074 -24 50 c-28 60 -66 97 -126 124 -43 20 -64 21 -542 21 l-498 0 0 145 c0
142 1 147 25 170 l24 25 1310 0 c720 0 1317 -3 1326 -6z m-3010 -188 c96 -45
147 -125 147 -228 0 -142 -109 -250 -252 -250 -66 0 -113 18 -164 62 -32 28
-66 77 -66 95 0 3 52 5 115 5 l115 0 0 90 0 90 -115 0 c-63 0 -115 4 -115 8 0
5 13 27 29 49 70 96 199 130 306 79z m577 -1011 l3 -185 28 -27 c27 -28 29
-28 172 -31 l145 -3 -2 -167 -3 -167 -147 -5 c-203 -7 -192 6 -196 -235 l-4
-185 -124 0 -124 0 0 595 0 595 124 0 124 0 4 -185z m-567 -186 c88 -45 138
-129 138 -229 -1 -68 -20 -115 -67 -168 -104 -115 -295 -105 -386 20 -48 66
-45 68 85 68 l115 0 0 85 0 85 -115 0 c-63 0 -115 2 -115 5 0 30 72 111 120
136 65 33 156 33 225 -2z m-33 -1181 c54 -16 132 -88 153 -140 39 -97 6 -236
-69 -293 -73 -55 -183 -73 -258 -42 -58 24 -138 107 -138 142 0 3 52 5 115 5
l115 0 0 90 0 90 -115 0 c-64 0 -115 4 -115 9 0 5 15 29 33 53 62 83 175 117
279 86z"/>
<path d="M632 3730 c-240 -81 -357 -361 -246 -589 35 -72 123 -160 195 -195
189 -92 422 -29 539 146 49 74 70 146 70 240 0 182 -117 342 -294 401 -66 23
-195 21 -264 -3z m243 -174 c127 -60 180 -206 121 -331 -46 -97 -125 -147
-233 -147 -82 -1 -154 38 -201 108 l-34 49 121 3 122 3 -3 87 -3 87 -118 5
-119 5 31 41 c78 109 202 144 316 90z"/>
<path d="M680 2549 c-75 -15 -163 -64 -219 -124 -218 -231 -119 -599 188 -700
40 -13 75 -16 141 -13 77 4 98 9 163 41 91 45 156 112 200 205 30 63 32 74 32
177 0 103 -2 114 -31 176 -86 180 -278 276 -474 238z m195 -188 c92 -41 140
-121 140 -231 0 -64 -4 -82 -28 -122 -89 -152 -296 -171 -410 -38 -66 77 -63
80 74 80 l119 0 0 85 0 85 -120 0 -120 0 19 39 c58 112 201 157 326 102z"/>
<path d="M706 1358 c-133 -18 -261 -112 -318 -234 -99 -212 -26 -440 180 -560
147 -86 370 -54 495 70 89 89 127 181 127 307 0 117 -36 205 -119 292 -96 100
-225 145 -365 125z m164 -189 c60 -27 98 -64 126 -124 60 -127 -3 -287 -134
-342 -49 -20 -142 -18 -194 5 -48 21 -101 69 -124 113 l-15 29 121 0 120 0 0
90 0 90 -121 0 -120 0 18 31 c25 43 95 104 135 116 56 18 139 15 188 -8z"/>
</g>
</svg>
